<svg width="26" height="26" viewBox="0 0 26 26" fill="none" xmlns="http://www.w3.org/2000/svg">
<path d="M0 7C0 3.134 3.13401 0 7 0H18.6889C22.5549 0 25.6889 3.13401 25.6889 7V18.6889C25.6889 22.5549 22.5549 25.6889 18.6889 25.6889H7C3.134 25.6889 0 22.5549 0 18.6889V7Z" fill="#5758E3" fill-opacity="0.2"/>
<mask id="mask0_2546_383" style="mask-type:alpha" maskUnits="userSpaceOnUse" x="3" y="3" width="19" height="19">
<rect x="3.77734" y="3.77734" width="18.1333" height="18.1333" fill="#D9D9D9"/>
</mask>
<g mask="url(#mask0_2546_383)">
<path d="M9.06595 13.9777V18.8888C9.06595 19.0494 9.01161 19.184 8.90294 19.2925C8.79427 19.4012 8.65965 19.4555 8.4991 19.4555C8.33841 19.4555 8.20386 19.4012 8.09544 19.2925C7.98689 19.184 7.93262 19.0494 7.93262 18.8888V7.86076C7.93262 7.66721 7.9981 7.50502 8.12906 7.37418C8.2599 7.24322 8.42209 7.17773 8.61564 7.17773H13.4844C13.6458 7.17773 13.7897 7.22836 13.9164 7.3296C14.043 7.43085 14.1228 7.56231 14.1558 7.724L14.3518 8.68885H17.8274C18.0209 8.68885 18.1831 8.75401 18.3139 8.88435C18.4449 9.01468 18.5104 9.17618 18.5104 9.36885V14.809C18.5104 15.0017 18.4449 15.1631 18.3139 15.2933C18.1831 15.4237 18.0209 15.4888 17.8274 15.4888H14.4697C14.3084 15.4888 14.1644 15.4382 14.0377 15.337C13.9111 15.2357 13.8314 15.1043 13.7984 14.9426L13.6023 13.9777H9.06595ZM14.846 14.3555H17.3771V9.82218H13.9755C13.8144 9.82218 13.6704 9.77156 13.5438 9.67031C13.4171 9.56907 13.3372 9.4376 13.3042 9.27591L13.1082 8.31107H9.06595V12.8444H13.9786C14.1398 12.8444 14.2837 12.895 14.4104 12.9963C14.5371 13.0975 14.6169 13.229 14.6499 13.3907L14.846 14.3555Z" fill="#5758E3"/>
<path d="M9.06595 13.9777V18.8888C9.06595 19.0494 9.01161 19.184 8.90294 19.2925C8.79427 19.4012 8.65965 19.4555 8.4991 19.4555C8.33841 19.4555 8.20386 19.4012 8.09544 19.2925C7.98689 19.184 7.93262 19.0494 7.93262 18.8888V7.86076C7.93262 7.66721 7.9981 7.50502 8.12906 7.37418C8.2599 7.24322 8.42209 7.17773 8.61564 7.17773H13.4844C13.6458 7.17773 13.7897 7.22836 13.9164 7.3296C14.043 7.43085 14.1228 7.56231 14.1558 7.724L14.3518 8.68885H17.8274C18.0209 8.68885 18.1831 8.75401 18.3139 8.88435C18.4449 9.01468 18.5104 9.17618 18.5104 9.36885V14.809C18.5104 15.0017 18.4449 15.1631 18.3139 15.2933C18.1831 15.4237 18.0209 15.4888 17.8274 15.4888H14.4697C14.3084 15.4888 14.1644 15.4382 14.0377 15.337C13.9111 15.2357 13.8314 15.1043 13.7984 14.9426L13.6023 13.9777H9.06595ZM14.846 14.3555H17.3771V9.82218H13.9755C13.8144 9.82218 13.6704 9.77156 13.5438 9.67031C13.4171 9.56907 13.3372 9.4376 13.3042 9.27591L13.1082 8.31107H9.06595V12.8444H13.9786C14.1398 12.8444 14.2837 12.895 14.4104 12.9963C14.5371 13.0975 14.6169 13.229 14.6499 13.3907L14.846 14.3555Z" fill="#5758E3" fill-opacity="0.75"/>
<path d="M9.06595 13.9777V18.8888C9.06595 19.0494 9.01161 19.184 8.90294 19.2925C8.79427 19.4012 8.65965 19.4555 8.4991 19.4555C8.33841 19.4555 8.20386 19.4012 8.09544 19.2925C7.98689 19.184 7.93262 19.0494 7.93262 18.8888V7.86076C7.93262 7.66721 7.9981 7.50502 8.12906 7.37418C8.2599 7.24322 8.42209 7.17773 8.61564 7.17773H13.4844C13.6458 7.17773 13.7897 7.22836 13.9164 7.3296C14.043 7.43085 14.1228 7.56231 14.1558 7.724L14.3518 8.68885H17.8274C18.0209 8.68885 18.1831 8.75401 18.3139 8.88435C18.4449 9.01468 18.5104 9.17618 18.5104 9.36885V14.809C18.5104 15.0017 18.4449 15.1631 18.3139 15.2933C18.1831 15.4237 18.0209 15.4888 17.8274 15.4888H14.4697C14.3084 15.4888 14.1644 15.4382 14.0377 15.337C13.9111 15.2357 13.8314 15.1043 13.7984 14.9426L13.6023 13.9777H9.06595ZM14.846 14.3555H17.3771V9.82218H13.9755C13.8144 9.82218 13.6704 9.77156 13.5438 9.67031C13.4171 9.56907 13.3372 9.4376 13.3042 9.27591L13.1082 8.31107H9.06595V12.8444H13.9786C14.1398 12.8444 14.2837 12.895 14.4104 12.9963C14.5371 13.0975 14.6169 13.229 14.6499 13.3907L14.846 14.3555Z" fill="#5758E3" fill-opacity="0.5"/>
<path d="M9.06595 13.9777V18.8888C9.06595 19.0494 9.01161 19.184 8.90294 19.2925C8.79427 19.4012 8.65965 19.4555 8.4991 19.4555C8.33841 19.4555 8.20386 19.4012 8.09544 19.2925C7.98689 19.184 7.93262 19.0494 7.93262 18.8888V7.86076C7.93262 7.66721 7.9981 7.50502 8.12906 7.37418C8.2599 7.24322 8.42209 7.17773 8.61564 7.17773H13.4844C13.6458 7.17773 13.7897 7.22836 13.9164 7.3296C14.043 7.43085 14.1228 7.56231 14.1558 7.724L14.3518 8.68885H17.8274C18.0209 8.68885 18.1831 8.75401 18.3139 8.88435C18.4449 9.01468 18.5104 9.17618 18.5104 9.36885V14.809C18.5104 15.0017 18.4449 15.1631 18.3139 15.2933C18.1831 15.4237 18.0209 15.4888 17.8274 15.4888H14.4697C14.3084 15.4888 14.1644 15.4382 14.0377 15.337C13.9111 15.2357 13.8314 15.1043 13.7984 14.9426L13.6023 13.9777H9.06595ZM14.846 14.3555H17.3771V9.82218H13.9755C13.8144 9.82218 13.6704 9.77156 13.5438 9.67031C13.4171 9.56907 13.3372 9.4376 13.3042 9.27591L13.1082 8.31107H9.06595V12.8444H13.9786C14.1398 12.8444 14.2837 12.895 14.4104 12.9963C14.5371 13.0975 14.6169 13.229 14.6499 13.3907L14.846 14.3555Z" fill="#5758E3" fill-opacity="0.1"/>
</g>
</svg>
